<?xml version="1.0" encoding="utf-8"?>
<!-- Generator: Adobe Illustrator 19.0.0, SVG Export Plug-In . SVG Version: 6.00 Build 0)  -->
<svg version="1.1" id="Calque_1" xmlns="http://www.w3.org/2000/svg" xmlns:xlink="http://www.w3.org/1999/xlink" x="0px" y="0px"
	 viewBox="-289 412.9 16 16" style="enable-background:new -289 412.9 16 16;" xml:space="preserve">
<g>
	<path d="M-281,412.9c-4.4,0-8,3.6-8,8c0,4.4,3.6,8,8,8s8-3.6,8-8C-273,416.5-276.6,412.9-281,412.9z M-281,427.4
		c-3.6,0-6.5-2.9-6.5-6.5c0-3.6,2.9-6.5,6.5-6.5s6.5,2.9,6.5,6.5C-274.5,424.5-277.4,427.4-281,427.4z"/>
	<polygon points="-282.3,421.8 -284.1,419.9 -285.2,420.8 -282.3,424.6 -276.8,418.7 -277.7,417.9 	"/>
</g>
</svg>
