<?xml version="1.0" encoding="utf-8"?>
<!-- Generator: Adobe Illustrator 19.0.0, SVG Export Plug-In . SVG Version: 6.00 Build 0)  -->
<svg version="1.1" id="Calque_1" xmlns="http://www.w3.org/2000/svg" xmlns:xlink="http://www.w3.org/1999/xlink"
	 viewBox="-267 389.1 60.6 63.8"  xml:space="preserve">
<g class="st0" id="XMLID_1_" class="icons-code">
	<path id="XMLID_3_" d="M-265.5,418.8c5.7,0,6.5-3.1,6.5-5.9c0-2.2-0.3-4.5-0.6-6.7c-0.3-2.2-0.6-4.4-0.6-6.6
		c-0.1-7.5,4.7-10.6,11.5-10.6h1.7v4.4h-1.4c-4.7,0-6.3,2.6-6.3,6.9c0,1.8,0.2,3.8,0.6,5.7c0.3,2,0.6,3.9,0.6,6.1
		c0.1,5.1-2.2,7.7-5.8,8.6v0.2c3.6,0.9,5.8,3.6,5.8,8.7c0,2.2-0.2,4.2-0.6,6.1c-0.3,2-0.6,3.8-0.6,5.8c0,4.5,1.8,7,6.3,7h1.4v4.4
		h-1.7c-6.6,0-11.6-2.9-11.6-11c0-2.2,0.3-4.4,0.6-6.6s0.6-4.3,0.6-6.5c0-2.5-0.8-5.9-6.5-5.9L-265.5,418.8L-265.5,418.8z"/>
	<path id="XMLID_2_" d="M-206.1,422.8c-5.7,0-6.5,3.4-6.5,5.9c0,2.2,0.3,4.3,0.6,6.5s0.6,4.4,0.6,6.6c0,8.1-5,11-11.6,11h-1.7v-4.4
		h1.4c4.5-0.1,6.4-2.5,6.4-7c0-1.9-0.3-3.8-0.6-5.8c-0.3-1.9-0.6-3.9-0.6-6.1c0-5.1,2.2-7.8,5.8-8.7v-0.2c-3.5-1-5.8-3.5-5.8-8.6
		c0-2.2,0.3-4.1,0.6-6.1c0.2-1.9,0.6-3.8,0.6-5.7c0-4.3-1.7-6.8-6.3-6.9h-1.4V389h1.6c6.8,0,11.7,3.1,11.7,10.5
		c0,2.2-0.3,4.4-0.6,6.6s-0.6,4.5-0.6,6.7c0,2.8,0.8,5.9,6.5,5.9L-206.1,422.8L-206.1,422.8z"/>
</g>
</svg>
