<?xml version="1.0" encoding="utf-8"?>
<!-- Generator: Adobe Illustrator 19.0.0, SVG Export Plug-In . SVG Version: 6.00 Build 0)  -->
<svg version="1.1" id="Calque_1" xmlns="http://www.w3.org/2000/svg" xmlns:xlink="http://www.w3.org/1999/xlink" x="0px" y="0px"
	 viewBox="0 0 79.5 83.9" style="enable-background:new 0 0 79.5 83.9;" xml:space="preserve">
<g id="XMLID_1_">
	<path id="XMLID_4_" d="M42.8,1.5v11c0,0.8-0.7,1.5-1.5,1.5h-1.5c-0.8,0-1.5-0.7-1.5-1.5v-11c0-0.8,0.7-1.5,1.5-1.5
		l1.5,0C42.1,0,42.8,0.7,42.8,1.5z"/>
	<path id="XMLID_7_" d="M65.8,11.5l-5.6,7.7c-0.5,0.7-1.4,0.8-2.1,0.3l-1.2-0.9c-0.7-0.5-0.8-1.4-0.3-2.1l5.6-7.7
		c0.5-0.7,1.4-0.8,2.1-0.3l1.2,0.9C66.1,9.9,66.3,10.9,65.8,11.5z"/>
	<path id="XMLID_5_" d="M50.8,82.4H30.3c-0.8,0-1.5-0.7-1.5-1.5v-1.5c0-0.8,0.7-1.5,1.5-1.5h20.5c0.8,0,1.5,0.7,1.5,1.5
		v1.5C52.3,81.7,51.7,82.4,50.8,82.4z"/>
	<path id="XMLID_8_" d="M50.8,75.6H30.3c-0.8,0-1.5-0.7-1.5-1.5v-1.5c0-0.8,0.7-1.5,1.5-1.5h20.5c0.8,0,1.5,0.7,1.5,1.5
		v1.5C52.3,74.9,51.7,75.6,50.8,75.6z"/>
	<path id="XMLID_6_" d="M61.2,31C56.6,17.3,41,17.1,40.7,17.1c0,0,0,0,0,0c-12.6,0-18.5,9.2-18.7,9.5
		c-9.2,13.1,2.9,28.8,3.4,29.5c3.4,4.1,3.4,10.2,3.4,10.3v0.4c0,0.8,0.7,1.5,1.5,1.5h20.5c0.8,0,1.5-0.7,1.5-1.5v-1.5
		c0-0.8-0.7-1.5-1.5-1.5H32.9c-0.4-2.5-1.5-6.8-4.4-10.3c-0.1-0.1-10.8-14-3.2-24.7c0.2-0.3,5.1-7.7,15.4-7.7c0,0,0,0,0,0
		c0.6,0,13.2,0.1,16.8,11.3l0.2,0.4c0.2,0.3,4,7.6-5,20.5l-0.1,0.1c-0.4,0.6-0.9,1.5-1.5,2.6l3.5,1.9c0.4-0.8,0.9-1.6,1.4-2.4
		C65.8,41.5,62,32.6,61.2,31z"/>
	<path id="XMLID_2_" d="M14.3,12.4l6.5,6.9c0.6,0.6,1.5,0.6,2.1,0.1l1.1-1c0.6-0.6,0.6-1.5,0.1-2.1l-6.5-6.9
		c-0.6-0.6-1.5-0.6-2.1-0.1l-1.1,1C13.8,10.9,13.8,11.8,14.3,12.4z"/>
	<path id="XMLID_3_" d="M31.9,49l-2.8-5.7l0,0c-1.9-3.7-2.3-7.2-1-10.4c2.2-5.7,8.8-8.2,9.1-8.3l1,2.8
		c-0.1,0-5.6,2.1-7.4,6.6c-0.9,2.2-0.6,4.7,0.6,7.4l0,0l3.1,6.3L31.9,49z"/>
</g>

</svg>
