<?xml version="1.0" encoding="utf-8"?>
<!-- Generator: Adobe Illustrator 19.0.0, SVG Export Plug-In . SVG Version: 6.00 Build 0)  -->
<svg version="1.1" id="Calque_1" xmlns="http://www.w3.org/2000/svg" xmlns:xlink="http://www.w3.org/1999/xlink" x="0px" y="0px"
	 viewBox="-463 265 32 32" style="enable-background:new -463 265 32 32;" xml:space="preserve">
<path d="M-457.6,296.7l-5.1-5.1c-0.3-0.3-0.3-0.8,0-1.1l25.2-25.2c0.3-0.3,0.8-0.3,1.1,0l5.1,5.1c0.3,0.3,0.3,0.8,0,1.1l-25.2,25.2
	C-456.8,296.9-457.3,296.9-457.6,296.7z"/>
<path d="M-436.4,296.7l5.1-5.1c0.3-0.3,0.3-0.8,0-1.1l-25.2-25.2c-0.3-0.3-0.8-0.3-1.1,0l-5.1,5.1c-0.3,0.3-0.3,0.8,0,1.1l25.2,25.2
	C-437.2,296.9-436.7,296.9-436.4,296.7z"/>
</svg>
