<?xml version="1.0" encoding="utf-8"?>
<!-- Generator: Adobe Illustrator 19.0.0, SVG Export Plug-In . SVG Version: 6.00 Build 0)  -->
<svg version="1.1" id="Calque_1" xmlns="http://www.w3.org/2000/svg" xmlns:xlink="http://www.w3.org/1999/xlink" x="0px" y="0px"
	 viewBox="-456.2 271.1 18.4 18.4" style="enable-background:new -456.2 271.1 18.4 18.4;" xml:space="preserve">

<path class="barre-left" d="M-439.7,289.4l-16.3-16.3c-0.2-0.2-0.2-0.4,0-0.6l1.2-1.2c0.2-0.2,0.4-0.2,0.6,0l16.3,16.3
	c0.2,0.2,0.2,0.4,0,0.6l-1.2,1.2C-439.3,289.6-439.6,289.6-439.7,289.4z"/>
<path class="barre-right" d="M-454.3,289.4l16.3-16.3c0.2-0.2,0.2-0.4,0-0.6l-1.2-1.2c-0.2-0.2-0.4-0.2-0.6,0l-16.3,16.3
	c-0.2,0.2-0.2,0.4,0,0.6l1.2,1.2C-454.7,289.6-454.4,289.6-454.3,289.4z"/>
</svg>
