<?xml version="1.0" encoding="utf-8"?>
<!-- Generator: Adobe Illustrator 19.0.0, SVG Export Plug-In . SVG Version: 6.00 Build 0)  -->
<svg version="1.1" id="Calque_1" xmlns="http://www.w3.org/2000/svg" xmlns:xlink="http://www.w3.org/1999/xlink" x="0px" y="0px"
	 viewBox="0 0 72.3 63.8" style="enable-background:new 0 0 72.3 63.8;" xml:space="preserve">
<g id="XMLID_1_">
	<path id="XMLID_4_" d="M40.5-274.7v11c0,0.8-0.7,1.5-1.5,1.5h-1.5c-0.8,0-1.5-0.7-1.5-1.5v-11c0-0.8,0.7-1.5,1.5-1.5
		H39C39.8-276.2,40.5-275.5,40.5-274.7z"/>
	<path id="XMLID_7_" d="M63.6-264.6L58-257c-0.5,0.7-1.4,0.8-2.1,0.3l-1.2-0.9c-0.7-0.5-0.8-1.4-0.3-2.1l5.6-7.7
		c0.5-0.7,1.4-0.8,2.1-0.3l1.2,0.9C63.9-266.3,64-265.3,63.6-264.6z"/>
	<path id="XMLID_5_" d="M48.6-193.8H28.1c-0.8,0-1.5-0.7-1.5-1.5v-1.5c0-0.8,0.7-1.5,1.5-1.5h20.5
		c0.8,0,1.5,0.7,1.5,1.5v1.5C50.1-194.5,49.4-193.8,48.6-193.8z"/>
	<path id="XMLID_8_" d="M48.6-200.6H28.1c-0.8,0-1.5-0.7-1.5-1.5v-1.5c0-0.8,0.7-1.5,1.5-1.5h20.5
		c0.8,0,1.5,0.7,1.5,1.5v1.5C50.1-201.2,49.4-200.6,48.6-200.6z"/>
	<path id="XMLID_6_" d="M59-245.1C54.4-258.9,38.7-259,38.4-259c0,0,0,0,0,0c-12.6,0-18.5,9.2-18.7,9.5
		c-9.2,13.1,2.9,28.8,3.4,29.5c3.4,4.1,3.4,10.2,3.4,10.3v0.4c0,0.8,0.7,1.5,1.5,1.5h20.5c0.8,0,1.5-0.7,1.5-1.5v-1.5
		c0-0.8-0.7-1.5-1.5-1.5H30.7c-0.4-2.5-1.5-6.8-4.4-10.3c-0.1-0.1-10.8-14-3.2-24.7c0.2-0.3,5.1-7.7,15.4-7.7c0,0,0,0,0,0
		c0.6,0,13.2,0.1,16.8,11.3l0.2,0.4c0.2,0.3,4,7.6-5,20.5l-0.1,0.1c-0.4,0.6-0.9,1.5-1.5,2.6l3.5,1.9c0.4-0.8,0.9-1.6,1.4-2.4
		C63.5-234.7,59.8-243.6,59-245.1z"/>
	<path id="XMLID_2_" d="M12.1-263.7l6.5,6.9c0.6,0.6,1.5,0.6,2.1,0.1l1.1-1c0.6-0.6,0.6-1.5,0.1-2.1l-6.5-6.9
		c-0.6-0.6-1.5-0.6-2.1-0.1l-1.1,1C11.5-265.3,11.5-264.3,12.1-263.7z"/>
	<path id="XMLID_3_" d="M29.7-227.2l-2.8-5.7l0,0c-1.9-3.7-2.3-7.2-1-10.4c2.2-5.7,8.8-8.2,9.1-8.3l1,2.8
		c-0.1,0-5.6,2.1-7.4,6.6c-0.9,2.2-0.6,4.7,0.6,7.4l0,0l3.1,6.3L29.7-227.2z"/>
</g>
<g id="XMLID_10_">
	<path id="XMLID_11_" d="M7.5-110.6c5.7,0,6.5-3.1,6.5-5.9c0-2.2-0.3-4.5-0.6-6.7c-0.3-2.2-0.6-4.4-0.6-6.6
		c0-7.4,4.8-10.5,11.6-10.5H26v4.4h-1.4c-4.7,0-6.3,2.6-6.3,6.9c0,1.8,0.2,3.8,0.6,5.7c0.3,2,0.6,3.9,0.6,6.1
		c0.1,5.1-2.2,7.7-5.8,8.6v0.2c3.6,0.9,5.8,3.6,5.8,8.7c0,2.2-0.2,4.2-0.6,6.1c-0.3,2-0.6,3.8-0.6,5.8c0,4.5,1.8,7,6.3,7H26v4.4
		h-1.7c-6.6,0-11.6-2.9-11.6-11c0-2.2,0.3-4.4,0.6-6.6c0.3-2.2,0.6-4.3,0.6-6.5c0-2.5-0.8-5.9-6.5-5.9V-110.6z"/>
	<path id="XMLID_13_" d="M66.8-106.5c-5.7,0-6.5,3.4-6.5,5.9c0,2.2,0.3,4.3,0.6,6.5c0.3,2.2,0.6,4.4,0.6,6.6
		c0,8.1-5,11-11.6,11h-1.7V-81h1.4c4.5-0.1,6.4-2.5,6.4-7c0-1.9-0.3-3.8-0.6-5.8c-0.3-1.9-0.6-3.9-0.6-6.1c0-5.1,2.2-7.8,5.8-8.7
		v-0.2c-3.5-1-5.8-3.5-5.8-8.6c0-2.2,0.3-4.1,0.6-6.1c0.2-1.9,0.6-3.8,0.6-5.7c0-4.3-1.7-6.8-6.3-6.9h-1.4v-4.4H50
		c6.8,0,11.7,3.1,11.7,10.5c0,2.2-0.3,4.4-0.6,6.6c-0.3,2.2-0.6,4.5-0.6,6.7c0,2.8,0.8,5.9,6.5,5.9V-106.5z"/>
</g>
<path id="XMLID_17_" d="M72.3,51V0H0v51h31.9v8.5h-8.5v4.3h25.5v-4.3h-8.5V51H72.3z M4.3,42.5V4.3H68v38.3H4.3z"/>
</svg>
