<?xml version="1.0" encoding="utf-8"?>
<!-- Generator: Adobe Illustrator 19.0.0, SVG Export Plug-In . SVG Version: 6.00 Build 0)  -->
<svg version="1.1" id="Calque_1" xmlns="http://www.w3.org/2000/svg" xmlns:xlink="http://www.w3.org/1999/xlink" x="0px" y="0px"
	 viewBox="-252.5 389.1 30.3 63.8" style="enable-background:new -252.5 389.1 30.3 63.8;" xml:space="preserve">
<g>
	<path d="M-234.6,396.5c4.4,0,8.5,0.7,12.4,2.1v8.1h-3.7c-0.7-2.3-1.7-4-3.1-5.1c-1.4-1.1-3.2-1.7-5.5-1.8v18.1
		c3.5,1.7,6.1,3.2,7.9,4.5c1.8,1.3,3.1,2.8,4,4.4c0.9,1.6,1.4,3.5,1.4,5.8c0,4.1-1.1,7.2-3.4,9.5c-2.3,2.2-5.7,3.5-10.1,3.9v7h-3.9
		V446c-2.2,0-4.6-0.3-7.1-0.8c-2.5-0.5-4.7-1.1-6.5-1.7v-8.3h3.8c0.6,2.6,1.7,4.5,3.2,5.7c1.5,1.2,3.8,1.8,6.6,1.9v-19.5l-0.9-0.5
		c-3.3-1.6-5.7-3-7.3-4.2c-1.6-1.2-2.8-2.5-3.6-4c-0.9-1.5-1.3-3.2-1.3-5.2c0-1.9,0.4-3.6,1.1-5.1c0.7-1.5,1.7-2.8,2.9-3.9
		c1.2-1.1,2.6-1.9,4.3-2.6c1.6-0.6,3.4-1,5.2-1.2v-7.2h3.9V396.5z M-238.5,416.4v-16.5c-2.2,0.3-3.9,1.1-5.2,2.5
		c-1.3,1.4-2,3.1-2,5.1s0.6,3.7,1.7,5.1C-242.9,413.9-241,415.2-238.5,416.4z M-234.8,424.8v17.9c2.3-0.3,4.1-1.1,5.4-2.5
		c1.3-1.4,1.9-3.4,1.9-5.8c0-2.2-0.6-4-1.7-5.5C-230.4,427.4-232.3,426.1-234.8,424.8z"/>
</g>
</svg>
