<?xml version="1.0" encoding="utf-8"?>
<!-- Generator: Adobe Illustrator 19.0.0, SVG Export Plug-In . SVG Version: 6.00 Build 0)  -->
<svg version="1.1" id="Calque_1" xmlns="http://www.w3.org/2000/svg" xmlns:xlink="http://www.w3.org/1999/xlink" x="0px" y="0px"
	 viewBox="-463 265 32 32" style="enable-background:new -463 265 32 32;" xml:space="preserve">
<path d="M-436.4,265h-21.3c-3,0-5.4,2.4-5.4,5.4v21.3c0,3,2.4,5.4,5.4,5.4h21.3c3,0,5.4-2.4,5.4-5.4v-21.3
	C-431,267.4-433.4,265-436.4,265z M-451,291h-4v-14h4V291z M-453,275c-1.1,0-2-0.9-2-2s0.9-2,2-2s2,0.9,2,2S-451.9,275-453,275z
	 M-437,291h-4v-8c0-1.1-0.9-2-2-2s-2,0.9-2,2v8h-4v-14h4v2.5c0.8-1.1,2.1-2.5,3.5-2.5c2.5,0,4.5,2.2,4.5,5V291z"/>
</svg>
