<?xml version="1.0" encoding="utf-8"?>
<!-- Generator: Adobe Illustrator 19.0.0, SVG Export Plug-In . SVG Version: 6.00 Build 0)  -->
<svg version="1.1" id="Calque_1" xmlns="http://www.w3.org/2000/svg" xmlns:xlink="http://www.w3.org/1999/xlink" x="0px" y="0px"
	 viewBox="0 0 153.9 163.5" style="enable-background:new 0 0 153.9 163.5;" xml:space="preserve">

<path id="XMLID_1_" d="M66.8,86.7l-25.9,25.9c-2.3,2.3-6,2.3-8.2,0L6.7,86.7c-2.3-2.3-2.3-6,0-8.2l25.9-25.9
	c2.3-2.3,6-2.3,8.2,0l25.9,25.9C69.1,80.8,69.1,84.5,66.8,86.7z"/>
<path id="XMLID_4_" d="M107.8,127.8l-25.9,25.9c-2.3,2.3-6,2.3-8.2,0l-25.9-25.9c-2.3-2.3-2.3-6,0-8.2l25.9-25.9
	c2.3-2.3,6-2.3,8.2,0l25.9,25.9C110.1,121.8,110.1,125.5,107.8,127.8z"/>
<path id="XMLID_5_" d="M149.1,86.5l-25.9,25.9c-2.3,2.3-6,2.3-8.2,0L89,86.5c-2.3-2.3-2.3-6,0-8.2l25.9-25.9
	c2.3-2.3,6-2.3,8.2,0l25.9,25.9C151.4,80.5,151.4,84.2,149.1,86.5z"/>
<path id="XMLID_6_" class="st1" d="M104.3,46.4l-22,22c-2.3,2.3-6,2.3-8.2,0L51.3,45.7c-2.3-2.3-2.3-6,0-8.2l22-22
	c2.3-2.3,6-2.3,8.2,0l22.7,22.7C106.6,40.5,106.6,44.2,104.3,46.4z"/>
</svg>
