<?xml version="1.0" encoding="utf-8"?>
<!-- Generator: Adobe Illustrator 19.0.0, SVG Export Plug-In . SVG Version: 6.00 Build 0)  -->
<svg version="1.1" id="svg2943" xmlns:svg="http://www.w3.org/2000/svg"
	 xmlns="http://www.w3.org/2000/svg" xmlns:xlink="http://www.w3.org/1999/xlink" x="0px" y="0px" viewBox="-147 341.9 300 159"
	 style="enable-background:new -147 341.9 300 159;" xml:space="preserve">
<g>
	<path class="st0" d="M-55,400.5h-12.9l-5,29.8H-61c8.9-1,16.9-4,17.9-20.9C-43.1,403.5-48.1,400.5-55,400.5z"/>
	<path class="st0" d="M77.5,400.5H64.6l-5,29.8h11.9c8.9-1,16.9-4,17.9-20.9C89.5,403.5,84.5,400.5,77.5,400.5z"/>
	<path class="st0" d="M3,345.9c-80.1,0-145.1,33.8-145.1,75.5s65,75.5,145.1,75.5s145.1-33.8,145.1-75.5S83.1,345.9,3,345.9z
		 M-60.6,445.2h-17.9l-4,20.9h-18.9l15.9-80.5h36.8c15.9,1,23.8,8.9,23.8,22.9C-24.8,432.3-43.7,446.2-60.6,445.2z M11,445.2l7-36.8
		c1-5,1-8-6-8H-3l-8.9,44.7h-18.9l15.9-80.5H4l-4,20.9h17.9c15.9,1,21.9,8.9,19.9,18.9l-7,40.7H11z M72.6,445.2H54.7l-4,20.9H31.8
		l15.9-80.5h36.8c15.9,1,23.9,8.9,23.9,22.9C108.3,432.3,89.5,446.2,72.6,445.2z"/>
</g>
</svg>
