<?xml version="1.0" encoding="utf-8"?>
<!-- Generator: Adobe Illustrator 19.0.0, SVG Export Plug-In . SVG Version: 6.00 Build 0)  -->
<svg version="1.1" id="Calque_1" xmlns="http://www.w3.org/2000/svg" xmlns:xlink="http://www.w3.org/1999/xlink" 
	 viewBox="-283.2 400.6 92.2 41.6" xml:space="preserve">

<g class="icons-code">
	<path d="M-283.1,424.4v-4.7l27-11.4v5l-21.4,8.8l21.4,8.9v5L-283.1,424.4z"/>
	<path d="M-239.8,432.2c0-0.7,0-1.2,0-1.5c0-2,0.3-3.7,0.8-5.1c0.4-1.1,1.1-2.2,2-3.3c0.7-0.8,1.9-2,3.6-3.5
		c1.7-1.5,2.9-2.8,3.4-3.7c0.5-0.9,0.8-1.9,0.8-3c0-1.9-0.8-3.7-2.3-5.1c-1.5-1.5-3.4-2.2-5.6-2.2c-2.1,0-3.9,0.7-5.3,2
		c-1.4,1.3-2.4,3.4-2.8,6.3l-5.1-0.6c0.5-3.8,1.8-6.7,4.1-8.7s5.3-3,9.1-3c4,0,7.2,1.1,9.5,3.3s3.6,4.8,3.6,7.9
		c0,1.8-0.4,3.4-1.3,4.9s-2.5,3.3-4.9,5.5c-1.6,1.4-2.7,2.5-3.2,3.2s-0.9,1.5-1.1,2.4s-0.4,2.3-0.4,4.3H-239.8z M-240.1,442.2v-5.7
		h5.7v5.7H-240.1z"/>
	<path d="M-191.1,424.4l-27,11.5v-5l21.4-8.9l-21.4-8.8v-5l27,11.4V424.4z"/>
</g>
</svg>
