<?xml version="1.0" encoding="utf-8"?>
<svg version="1.1"
	  xmlns:svg="http://www.w3.org/2000/svg" xmlns:cc="http://creativecommons.org/ns#" xmlns:inkscape="http://www.inkscape.org/namespaces/inkscape" xmlns:dc="http://purl.org/dc/elements/1.1/" xmlns:rdf="http://www.w3.org/1999/02/22-rdf-syntax-ns#" xmlns:sodipodi="http://sodipodi.sourceforge.net/DTD/sodipodi-0.dtd"
	 xmlns="http://www.w3.org/2000/svg" xmlns:xlink="http://www.w3.org/1999/xlink" x="0px" y="0px" viewBox="-47 0 500 500"
	 xml:space="preserve">

<g id="layer1" transform="translate(0,-552.36218)">
	<path id="rect2990-1" class="st0" d="M203,552.4L203,552.4c138.1,0,250,111.9,250,250l0,0c0,138.1-111.9,250-250,250l0,0
		c-138.1,0-250-111.9-250-250l0,0C-47,664.3,64.9,552.4,203,552.4z"/>
	<path id="rect2989" class="st1" d="M210.7,642.4c-90.1,0-135.5,62.6-135.5,114.8c0,31.6,12.3,59.7,38.8,70.2
		c4.3,1.7,8.2,0.1,9.5-4.6c0.9-3.2,2.9-11.3,3.9-14.7c1.3-4.6,0.8-6.2-2.7-10.3c-7.6-8.7-12.5-20-12.5-36.1c0-46.4,35.8-88,93.3-88
		c50.9,0,78.9,30.2,78.9,70.4c0,53-24.2,97.8-60.1,97.8c-19.8,0-34.7-15.9-29.9-35.4c5.7-23.3,16.7-48.4,16.7-65.2
		c0-15-8.4-27.6-25.6-27.6c-20.3,0-36.5,20.3-36.5,47.6c0,17.3,6,29.1,6,29.1s-20.8,85.2-24.4,100.2c-7.2,29.7-1.1,66.2-0.6,69.8
		c0.3,2.2,3.2,2.7,4.5,1.1c1.9-2.4,26-31.3,34.2-60.2c2.3-8.2,13.3-50.5,13.3-50.5c6.6,12.2,25.8,22.9,46.3,22.9
		c60.9,0,102.3-53.9,102.3-125.9C330.8,693.1,283.1,642.4,210.7,642.4L210.7,642.4z"/>
</g>
</svg>
