<?xml version="1.0" encoding="utf-8"?>
<!-- Generator: Adobe Illustrator 19.0.0, SVG Export Plug-In . SVG Version: 6.00 Build 0)  -->
<svg version="1.1" id="Calque_1" xmlns="http://www.w3.org/2000/svg" xmlns:xlink="http://www.w3.org/1999/xlink" x="0px" y="0px"
	 viewBox="-463 265 32 32" style="enable-background:new -463 265 32 32;" xml:space="preserve">
<style type="text/css">
	.st0{fill:#FFFFFF;}
</style>
<path class="st0" d="M-447,265.3c-8.7,0-15.7,7-15.7,15.7s7,15.7,15.7,15.7s15.7-7,15.7-15.7S-438.3,265.3-447,265.3z M-441.4,281.3
	c0,0.2-0.1,0.3-0.3,0.3h-4.6v4.6c0,0.2-0.1,0.3-0.3,0.3h-0.6c-0.2,0-0.3-0.1-0.3-0.3v-4.6h-4.6c-0.2,0-0.3-0.1-0.3-0.3v-0.6
	c0-0.2,0.1-0.3,0.3-0.3h4.6v-4.6c0-0.2,0.1-0.3,0.3-0.3h0.6c0.2,0,0.3,0.1,0.3,0.3v4.6h4.6c0.2,0,0.3,0.1,0.3,0.3V281.3z"/>
</svg>
