<?xml version="1.0" encoding="utf-8"?>
<!-- Generator: Adobe Illustrator 19.0.0, SVG Export Plug-In . SVG Version: 6.00 Build 0)  -->
<svg version="1.1" id="Calque_1" xmlns="http://www.w3.org/2000/svg" xmlns:xlink="http://www.w3.org/1999/xlink" x="0px" y="0px"
	 viewBox="0 0 19.2 19.2" style="enable-background:new 0 0 19.2 19.2;" xml:space="preserve">

<path id="XMLID_7_" d="M9.6-94"/>
<polygon id="XMLID_6_" class="st0" points="-21.1,-70 -21.1,-68 -16.7,-68 -24.4,-60.3 -23,-58.8 -15.1,-66.7 -15.1,-63.3 
	-13.1,-63.3 -13.1,-70 "/>
<path id="XMLID_8_" class="st0" d="M-14-60.1v7.8c0,0.4-0.3,0.7-0.7,0.7h-16.1c-0.4,0-0.7-0.3-0.7-0.7v-16.1c0-0.4,0.3-0.7,0.7-0.7
	h6.2V-70h-6.2c-0.8,0-1.5,0.7-1.5,1.5v16.1c0,0.8,0.7,1.5,1.5,1.5h16.1c0.8,0,1.5-0.7,1.5-1.5v-7.8H-14z"/>
<polygon id="XMLID_3_" class="st0" points="15.9,11.2 15.9,9.2 11.5,9.2 19.2,1.4 17.8,0 10,7.9 10,4.5 8,4.5 8,11.2 "/>
<path id="XMLID_5_" class="st0" d="M18.3,9.9v7.8c0,0.4-0.3,0.7-0.7,0.7H1.5c-0.4,0-0.7-0.3-0.7-0.7V1.5c0-0.4,0.3-0.7,0.7-0.7h6.2
	V0H1.5C0.7,0,0,0.7,0,1.5v16.1c0,0.8,0.7,1.5,1.5,1.5h16.1c0.8,0,1.5-0.7,1.5-1.5V9.9H18.3z"/>
<polyline id="XMLID_1_" class="st1" points="69.1,-68.6 78.3,-59.4 69,-50.2 "/>
<polyline id="XMLID_9_" class="st1" points="-104.7,-50.2 -113.9,-59.4 -104.7,-68.6 "/>
</svg>
