<?xml version="1.0" encoding="utf-8"?>
<!-- Generator: Adobe Illustrator 19.0.0, SVG Export Plug-In . SVG Version: 6.00 Build 0)  -->
<svg version="1.1" id="Calque_1" xmlns="http://www.w3.org/2000/svg" xmlns:xlink="http://www.w3.org/1999/xlink" x="0px" y="0px"
	 viewBox="0 0 19.2 19.2" style="enable-background:new 0 0 19.2 19.2;" xml:space="preserve">

<path id="XMLID_7_" d="M42-24.1"/>
<polygon id="XMLID_6_" class="st0" points="11.3,0 11.3,2 15.7,2 8,9.7 9.4,11.1 17.2,3.3 17.2,6.6 19.2,6.6 19.2,0 "/>
<path id="XMLID_8_" class="st0" d="M18.3,9.9v7.8c0,0.4-0.3,0.7-0.7,0.7H1.5c-0.4,0-0.7-0.3-0.7-0.7V1.5c0-0.4,0.3-0.7,0.7-0.7h6.2
	V0H1.5C0.7,0,0,0.7,0,1.5v16.1c0,0.8,0.7,1.5,1.5,1.5h16.1c0.8,0,1.5-0.7,1.5-1.5V9.9H18.3z"/>
<polygon id="XMLID_3_" class="st0" points="48.3,81.1 48.3,79.1 43.9,79.1 51.6,71.4 50.2,70 42.3,77.9 42.3,74.5 40.3,74.5 
	40.3,81.1 "/>
<path id="XMLID_5_" class="st0" d="M50.7,79.9v7.8c0,0.4-0.3,0.7-0.7,0.7H33.9c-0.4,0-0.7-0.3-0.7-0.7V71.5c0-0.4,0.3-0.7,0.7-0.7
	h6.2V70h-6.2c-0.8,0-1.5,0.7-1.5,1.5v16.1c0,0.8,0.7,1.5,1.5,1.5H50c0.8,0,1.5-0.7,1.5-1.5v-7.8H50.7z"/>
<polyline id="XMLID_1_" class="st1" points="101.4,1.3 110.6,10.5 101.4,19.8 "/>
<polyline id="XMLID_9_" class="st1" points="-72.4,19.8 -81.6,10.6 -72.3,1.3 "/>
</svg>
